<svg xmlns="http://www.w3.org/2000/svg" viewBox="0 0 64 63.999">
  <path fill="#f05133" d="M62.793,29.15L34.85,1.208c-1.609-1.61-4.219-1.61-5.829,0l-5.802,5.803,7.36,7.36c1.711-.578,3.672-.19,5.035,1.174,1.371,1.372,1.756,3.35,1.163,5.067l7.095,7.094c1.717-.592,3.696-.209,5.067,1.164,1.915,1.915,1.915,5.019,0,6.936-1.917,1.916-5.02,1.916-6.938,0-1.44-1.442-1.797-3.559-1.066-5.334l-6.617-6.616v17.41c.467.231.908.539,1.296.928,1.915,1.915,1.915,5.019,0,6.936-1.915,1.915-5.021,1.915-6.935,0-1.915-1.918-1.915-5.022,0-6.936.474-.473,1.022-.831,1.607-1.07v-17.573c-.585-.24-1.132-.594-1.607-1.07-1.451-1.45-1.8-3.58-1.056-5.362l-7.255-7.257L1.208,29.019c-1.61,1.611-1.61,4.221,0,5.83l27.944,27.942c1.609,1.61,4.218,1.61,5.829,0l27.812-27.812c1.61-1.61,1.61-4.221,0-5.83h0Z" />
</svg>